<svg xmlns="http://www.w3.org/2000/svg" version="1.1" xlink="http://www.w3.org/1999/xlink" xmlns:svgjs="http://svgjs.com/svgjs" width="147.20677886162494" height="147"><defs id="SvgjsDefs23239"><linearGradient id="SvgjsLinearGradient3HltB2OWg7" gradientUnits="userSpaceOnUse" x1="-0.5138438763306111" y1="284.0999999999999" x2="283.99999999999983" y2="-0.413843876330631"><stop id="SvgjsStop23242" stop-color="#00aeff" offset="0"/><stop id="SvgjsStop23243" stop-color="#356dd0" offset="1"/></linearGradient><linearGradient id="SvgjsLinearGradientFmVqHxOXd10" gradientUnits="userSpaceOnUse" x1="0.004802277725037384" y1="32.00480227772504" x2="31.995197722274963" y2="0.014406833175109487"><stop id="SvgjsStop23246" stop-color="#00aeff" offset="0"/><stop id="SvgjsStop23247" stop-color="#0060cf" offset="1"/></linearGradient></defs><g id="SvgjsG23240" transform="scale(0.515970515970516)" opacity="1"><g id="SvgjsG23244" class="aIOwqgQ9O" transform="translate(0.6151092630079688, 0.3145245580293375) scale(1.002061414516178)" light-content="false" non-strokable="false" fill="url(#SvgjsLinearGradient3HltB2OWg7)"><path d="M105.9 16.3c.1 0 .3 0 .4-.1l2.4-1.2c2.5.7 4.9 1.5 7.2 2.5.1 0 .2.1.3.1.3 0 .7-.2.8-.5.2-.4 0-.9-.5-1.1-1.8-.7-3.7-1.4-5.6-2l2.1-.9c2.7.9 5.3 2 7.7 3.3.1.1.3.1.4.1.3 0 .6-.2.8-.5.2-.4 0-.9-.4-1.1-2-1-4-1.9-6.1-2.7.5-.2 1.1-.4 1.6-.6 2.6 1.1 5.1 2.3 7.4 3.7.1.1.3.1.4.1.3 0 .6-.2.7-.4.2-.4.1-.9-.3-1.2-1.9-1.1-3.9-2.1-5.9-3 .9-.3 1.8-.5 2.6-.8 2 1 4 2.1 5.8 3.3.1.1.3.1.5.1.3 0 .6-.1.7-.4.3-.4.1-.9-.3-1.2-1.4-.9-2.8-1.7-4.3-2.5.7-.2 1.5-.3 2.2-.5 2 1.2 4 2.5 5.9 3.9.2.1.3.2.5.2.3 0 .5-.1.7-.3.3-.4.2-.9-.2-1.2-1.4-1.1-2.9-2-4.4-3 .7-.1 1.5-.2 2.2-.3 2.3 1.6 4.6 3.3 6.6 5.1.2.1.4.2.6.2.2 0 .5-.1.6-.3.3-.4.3-.9-.1-1.2-1.7-1.5-3.4-2.8-5.3-4.2.6-.1 1.1-.1 1.7-.2 2.2 1.7 4.3 3.5 6.3 5.4.2.2.4.2.6.2.2 0 .4-.1.6-.3.3-.3.3-.9 0-1.2-1.6-1.5-3.2-3-5-4.4.9 0 1.8-.1 2.7-.1 1.7 1.5 3.3 3.1 4.8 4.7.2.2.4.3.6.3.2 0 .4-.1.6-.2.3-.3.4-.9 0-1.2-1.1-1.2-2.3-2.4-3.5-3.5.8 0 1.7.1 2.5.1 1.6 1.6 3.1 3.3 4.5 5 .2.2.4.3.7.3.2 0 .4-.1.5-.2.4-.3.4-.8.1-1.2-1-1.3-2.2-2.5-3.3-3.7.9.1 1.9.2 2.8.3 1.8 2.1 3.6 4.4 5.1 6.7.2.2.4.4.7.4.2 0 .3 0 .5-.1.4-.3.5-.8.2-1.2-1.2-1.8-2.6-3.6-4-5.4.6.1 1.1.2 1.7.3 1.7 2.2 3.3 4.5 4.7 6.9.2.3.4.4.7.4.1 0 .3 0 .4-.1.4-.2.5-.8.3-1.2-1.1-1.9-2.3-3.7-3.6-5.5.7.2 1.4.3 2.1.5 1.2 1.7 2.2 3.5 3.2 5.2.2.3.4.4.7.4.1 0 .3 0 .4-.1.4-.2.6-.7.3-1.2-.7-1.3-1.5-2.5-2.2-3.7 2.8.8 5.6 1.8 8.3 2.9.4.2.9 0 1.1-.5.2-.4 0-.9-.5-1.1-2.8-1.2-5.7-2.2-8.5-3 1.2-.6 2.5-1.1 3.8-1.7.4-.2.6-.7.5-1.1-.2-.4-.7-.6-1.1-.5-1.9.8-3.8 1.6-5.7 2.6-.7-.2-1.5-.4-2.2-.5 1.9-1 3.8-2 5.8-2.9.4-.2.6-.7.4-1.1-.2-.4-.7-.6-1.1-.4-2.6 1.2-5.2 2.5-7.7 3.9-.6-.1-1.1-.2-1.7-.3 1.8-1.2 3.7-2.3 5.7-3.2.4-.2.6-.7.4-1.1-.2-.4-.7-.6-1.1-.4-2.6 1.3-5.1 2.8-7.5 4.4-.9-.1-1.8-.2-2.8-.3l3.9-2.7c.4-.3.5-.8.3-1.2-.3-.4-.8-.5-1.2-.3-1.9 1.2-3.8 2.5-5.6 3.9-.9 0-1.7-.1-2.6-.1 1.2-1 2.4-2 3.7-2.9.4-.3.5-.8.2-1.2-.3-.4-.8-.5-1.2-.2-1.8 1.3-3.6 2.8-5.3 4.3-.9 0-1.9 0-2.8.1 1.5-1.5 3.1-2.9 4.8-4.3.4-.3.4-.8.1-1.2-.3-.4-.8-.4-1.2-.1-2.2 1.8-4.3 3.7-6.3 5.8-.6 0-1.1.1-1.7.2 1.5-1.6 3-3.1 4.6-4.6.3-.3.4-.9.1-1.2s-.9-.4-1.2-.1c-2.1 1.9-4.2 4-6 6.2-.7.1-1.5.2-2.2.3 1.1-1.3 2.2-2.6 3.3-3.8.3-.3.3-.9 0-1.2-.3-.3-.9-.3-1.2 0-1.6 1.8-3.2 3.6-4.7 5.5-.8.2-1.5.3-2.3.5C125 6.4 126 5.2 127 4c.3-.4.2-.9-.1-1.2-.4-.3-.9-.2-1.2.1-1.4 1.8-2.8 3.6-4.1 5.5-.9.2-1.8.5-2.8.8 1.1-1.8 2.3-3.6 3.6-5.4.3-.4.2-.9-.2-1.2-.4-.3-.9-.2-1.2.2-1.7 2.3-3.3 4.7-4.7 7.2-.5.2-1.1.4-1.6.6 1-1.9 2.1-3.8 3.4-5.6.3-.4.2-.9-.2-1.2-.4-.3-.9-.2-1.2.2-1.6 2.4-3.1 5-4.4 7.5l-2.1.9c.8-1.7 1.7-3.4 2.6-5.1.2-.4.1-.9-.3-1.2-.4-.2-.9-.1-1.2.3-1.3 2.3-2.5 4.7-3.5 7.1l-2.4 1.2c-.4.2-.6.7-.4 1.1.3.4.6.5.9.5z"/><circle cx="189.3" cy="18.1" r="2.6"/><path d="M177.4 267.4l-2.4 1.2c-2.5-.7-4.9-1.5-7.2-2.5-.4-.2-.9 0-1.1.5-.2.4 0 .9.5 1.1 1.8.7 3.7 1.4 5.6 2l-2.1.9c-2.7-.9-5.3-2-7.7-3.3-.4-.2-.9 0-1.1.4-.2.4 0 .9.4 1.1 2 1 4 1.9 6.1 2.7-.5.2-1.1.4-1.6.6-2.6-1.1-5.1-2.3-7.4-3.7-.4-.2-.9-.1-1.2.3-.2.4-.1.9.3 1.2 1.9 1.1 3.9 2.1 5.9 3-.9.3-1.8.5-2.6.8-2-1-4-2.1-5.8-3.3-.4-.3-.9-.1-1.2.3-.3.4-.1.9.3 1.2 1.4.9 2.8 1.7 4.3 2.5-.7.2-1.5.3-2.2.5-2-1.2-4-2.5-5.9-3.9-.4-.3-.9-.2-1.2.2-.3.4-.2.9.2 1.2 1.4 1.1 2.9 2 4.4 3-.7.1-1.5.2-2.2.3-2.3-1.6-4.6-3.3-6.6-5.1-.4-.3-.9-.3-1.2.1-.3.4-.3.9.1 1.2 1.7 1.5 3.4 2.8 5.3 4.2-.6.1-1.1.1-1.7.2-2.2-1.7-4.3-3.5-6.3-5.4-.3-.3-.9-.3-1.2 0s-.3.9 0 1.2c1.6 1.5 3.2 3 5 4.4-.9 0-1.8.1-2.7.1-1.7-1.5-3.3-3.1-4.8-4.7-.3-.3-.9-.4-1.2 0s-.4.9 0 1.2c1.1 1.2 2.3 2.4 3.5 3.5-.8 0-1.7-.1-2.5-.1-1.6-1.6-3.1-3.3-4.5-5-.3-.4-.8-.4-1.2-.1-.4.3-.4.8-.1 1.2 1 1.3 2.2 2.5 3.3 3.7-.9-.1-1.9-.2-2.8-.3-1.8-2.1-3.6-4.4-5.1-6.7-.3-.4-.8-.5-1.2-.2-.4.3-.5.8-.2 1.2 1.2 1.8 2.6 3.6 4 5.4-.6-.1-1.1-.2-1.6-.3-1.7-2.2-3.3-4.5-4.7-6.9-.2-.4-.8-.5-1.2-.3-.4.2-.5.8-.3 1.2 1.1 1.9 2.3 3.7 3.6 5.5-.7-.2-1.4-.3-2.1-.5-1.2-1.7-2.2-3.5-3.2-5.2-.2-.4-.7-.6-1.2-.3s-.6.7-.3 1.2c.7 1.3 1.5 2.5 2.2 3.7-2.8-.8-5.6-1.8-8.3-2.9-.4-.2-.9 0-1.1.5-.2.4 0 .9.5 1.1 2.8 1.2 5.7 2.2 8.6 3-1.3.6-2.5 1.1-3.8 1.7-.4.2-.6.7-.5 1.1.1.3.5.5.8.5.1 0 .2 0 .3-.1 1.9-.8 3.8-1.6 5.7-2.6.8.2 1.5.3 2.3.5-1.9 1-3.8 2-5.8 2.9-.4.2-.6.7-.4 1.1.1.3.5.5.8.5.1 0 .2 0 .3-.1 2.7-1.2 5.2-2.5 7.7-3.9.6.1 1.1.2 1.7.3-1.8 1.2-3.7 2.3-5.7 3.2-.4.2-.6.7-.4 1.1.1.3.4.5.8.5.1 0 .3 0 .4-.1 2.6-1.3 5.1-2.8 7.5-4.4l2.7.3-3.9 2.7c-.4.3-.5.8-.3 1.2.2.3.4.4.7.4.2 0 .3 0 .5-.1 1.9-1.2 3.8-2.6 5.6-3.9.9 0 1.7.1 2.6.1-1.2 1-2.4 2-3.7 2.9-.4.3-.5.8-.2 1.2.2.2.4.3.7.3.2 0 .4-.1.5-.2 1.8-1.4 3.6-2.8 5.3-4.3.9 0 1.9 0 2.8-.1-1.5 1.5-3.1 2.9-4.8 4.3-.4.3-.4.8-.1 1.2.2.2.4.3.7.3.2 0 .4-.1.5-.2 2.2-1.8 4.3-3.7 6.3-5.8.6 0 1.1-.1 1.7-.2-1.5 1.6-3 3.1-4.6 4.6-.3.3-.4.9-.1 1.2.2.2.4.3.6.3.2 0 .4-.1.6-.2 2.1-1.9 4.2-4 6-6.2.7-.1 1.5-.2 2.2-.3l-3.3 3.9c-.3.3-.3.9 0 1.2.2.2.4.2.6.2.2 0 .5-.1.6-.3 1.6-1.8 3.2-3.6 4.7-5.5.8-.2 1.5-.3 2.3-.5-.9 1.3-1.9 2.5-2.9 3.8-.3.4-.2.9.1 1.2.2.1.3.2.5.2s.5-.1.7-.3c1.4-1.8 2.8-3.6 4.1-5.5.9-.2 1.8-.5 2.7-.8-1.1 1.8-2.3 3.6-3.6 5.4-.3.4-.2.9.2 1.2.2.1.3.2.5.2.3 0 .5-.1.7-.3 1.7-2.3 3.3-4.7 4.7-7.2.5-.2 1.1-.4 1.6-.6-1 1.9-2.1 3.8-3.4 5.6-.3.4-.2.9.2 1.2.1.1.3.1.5.1.3 0 .5-.1.7-.4 1.6-2.4 3.1-5 4.4-7.5l2.1-.9c-.8 1.7-1.7 3.4-2.6 5.1-.2.4-.1.9.3 1.2.1.1.3.1.4.1.3 0 .6-.2.7-.4 1.3-2.3 2.5-4.7 3.5-7.1l2.4-1.2c.4-.2.6-.7.4-1.1-.8-.8-1.3-1-1.7-.8z"/><circle cx="94.4" cy="265.6" r="2.6"/><path d="M17 166.7c-.4-.2-.9 0-1.1.5-.7 1.8-1.4 3.7-2 5.6l-.9-2.1c.9-2.7 2-5.3 3.3-7.7.2-.4 0-.9-.4-1.1-.4-.2-.9 0-1.1.4-1 2-1.9 4-2.7 6.1-.2-.5-.4-1.1-.6-1.6 1.1-2.6 2.3-5.1 3.7-7.4.2-.4.1-.9-.3-1.2-.4-.2-.9-.1-1.2.3-1.1 1.9-2.1 3.9-3 5.9-.3-.9-.5-1.8-.8-2.6 1-2 2.1-4 3.3-5.8.3-.4.1-.9-.3-1.2-.4-.3-.9-.1-1.2.3-.9 1.4-1.7 2.8-2.5 4.3-.2-.7-.3-1.5-.5-2.2 1.2-2 2.5-4 3.9-5.9.3-.4.2-.9-.2-1.2s-.9-.2-1.2.2c-1.1 1.4-2 2.9-3 4.4-.1-.7-.2-1.5-.3-2.2 1.6-2.3 3.3-4.6 5.1-6.6.3-.4.3-.9-.1-1.2-.4-.3-.9-.3-1.2.1-1.5 1.7-2.8 3.4-4.2 5.2-.1-.6-.1-1.1-.2-1.7 1.7-2.2 3.5-4.3 5.4-6.3.3-.3.3-.9 0-1.2-.3-.3-.9-.3-1.2 0-1.5 1.6-3 3.2-4.4 5 0-.9-.1-1.8-.1-2.7 1.5-1.7 3.1-3.3 4.7-4.8.3-.3.4-.9 0-1.2-.3-.3-.9-.4-1.2 0-1.2 1.1-2.4 2.3-3.5 3.5 0-.8.1-1.7.1-2.5 1.6-1.6 3.3-3.1 5-4.5.4-.3.4-.8.1-1.2-.3-.4-.8-.4-1.2-.1-1.3 1-2.5 2.2-3.7 3.3.1-.9.2-1.9.3-2.8 2.1-1.8 4.4-3.6 6.7-5.1.4-.3.5-.8.2-1.2-.3-.4-.8-.5-1.2-.2-1.8 1.2-3.6 2.6-5.4 4 .1-.6.2-1.1.3-1.7 2.2-1.7 4.5-3.3 6.9-4.7.4-.2.5-.8.3-1.2-.2-.4-.8-.5-1.2-.3-1.9 1.1-3.7 2.3-5.5 3.6.2-.7.3-1.4.5-2.1 1.7-1.2 3.4-2.2 5.2-3.2.4-.2.6-.7.3-1.2-.2-.4-.7-.6-1.2-.3-1.3.7-2.5 1.5-3.7 2.2.8-2.8 1.8-5.6 2.9-8.3.2-.4 0-.9-.5-1.1-.4-.2-.9 0-1.1.5-1.2 2.8-2.2 5.7-3 8.5-.6-1.2-1.1-2.5-1.7-3.8-.2-.4-.7-.6-1.1-.5-.4.2-.6.7-.5 1.1.8 1.9 1.6 3.8 2.6 5.7-.2.7-.4 1.5-.5 2.2-1-1.9-2-3.8-2.9-5.8-.2-.4-.7-.6-1.1-.4-.4.2-.6.7-.4 1.1 1.2 2.6 2.5 5.2 3.9 7.7-.1.6-.2 1.1-.3 1.7-1.2-1.8-2.3-3.7-3.2-5.7-.2-.4-.7-.6-1.1-.4-.4.2-.6.7-.4 1.1 1.3 2.6 2.8 5.1 4.4 7.5-.1.9-.2 1.8-.3 2.8l-2.7-3.9c-.3-.4-.8-.5-1.2-.3-.4.3-.5.8-.3 1.2 1.2 1.9 2.5 3.8 3.9 5.6 0 .9-.1 1.7-.1 2.6-1-1.2-2-2.4-2.9-3.7-.3-.4-.8-.5-1.2-.2-.4.3-.5.8-.2 1.2 1.3 1.8 2.8 3.6 4.3 5.3 0 .9 0 1.9.1 2.8-1.5-1.5-2.9-3.1-4.3-4.8-.3-.4-.8-.4-1.2-.1-.4.3-.4.8-.1 1.2 1.8 2.2 3.7 4.3 5.8 6.3 0 .6.1 1.1.2 1.7-1.6-1.5-3.1-3-4.6-4.6-.3-.3-.9-.4-1.2-.1-.3.3-.4.9-.1 1.2 1.9 2.1 4 4.2 6.2 6 .1.7.2 1.5.3 2.2-1.3-1.1-2.6-2.2-3.8-3.3-.3-.3-.9-.3-1.2 0-.3.3-.3.9 0 1.2 1.8 1.6 3.6 3.2 5.5 4.7.2.8.3 1.5.5 2.3-1.3-.9-2.5-1.9-3.8-2.9-.4-.3-.9-.2-1.2.1-.3.4-.2.9.1 1.2 1.8 1.4 3.6 2.8 5.5 4.1.2.9.5 1.8.8 2.8-1.8-1.1-3.6-2.3-5.4-3.6-.4-.3-.9-.2-1.2.2-.3.4-.2.9.2 1.2 2.3 1.7 4.7 3.3 7.2 4.7.2.5.4 1.1.6 1.6-1.9-1-3.8-2.1-5.6-3.4-.4-.3-.9-.2-1.2.2-.3.4-.2.9.2 1.2 2.4 1.6 5 3.1 7.5 4.4l.9 2.1c-1.7-.8-3.4-1.7-5.1-2.6-.4-.2-.9-.1-1.2.3-.2.4-.1.9.3 1.2 2.3 1.3 4.7 2.5 7.1 3.5l1.2 2.4c.2.3.4.5.8.5.1 0 .3 0 .4-.1.4-.2.6-.7.4-1.1l-1.2-2.4c.7-2.5 1.5-4.9 2.5-7.2.7-.9.5-1.4 0-1.5z"/><circle cx="18.1" cy="94.4" r="2.6"/><path d="M283.5 141.7c-1.8-2.2-3.7-4.3-5.8-6.3 0-.6-.1-1.1-.2-1.7 1.6 1.5 3.1 3 4.6 4.6.3.3.9.4 1.2.1.3-.3.4-.9.1-1.2-1.9-2.1-4-4.2-6.2-6-.1-.7-.2-1.5-.3-2.2 1.3 1.1 2.6 2.2 3.8 3.3.3.3.9.3 1.2 0 .3-.3.3-.9 0-1.2-1.8-1.6-3.6-3.2-5.5-4.7-.2-.8-.3-1.5-.5-2.3 1.3.9 2.5 1.9 3.8 2.9.4.3.9.2 1.2-.1.3-.4.2-.9-.1-1.2-1.8-1.4-3.6-2.8-5.5-4.1-.2-.9-.5-1.8-.8-2.8 1.8 1.1 3.6 2.3 5.4 3.6.4.3.9.2 1.2-.2s.2-.9-.2-1.2c-2.3-1.7-4.7-3.3-7.2-4.7-.2-.5-.4-1.1-.6-1.6 1.9 1 3.8 2.1 5.6 3.4.4.3.9.2 1.2-.2.3-.4.2-.9-.2-1.2-2.4-1.6-5-3.1-7.5-4.4l-.9-2.1c1.7.8 3.4 1.7 5.1 2.6.4.2.9.1 1.2-.3s.1-.9-.3-1.2c-2.3-1.3-4.7-2.5-7.1-3.5l-1.2-2.4c-.2-.4-.7-.6-1.1-.4-.4.2-.6.7-.4 1.1l1.2 2.4c-.7 2.5-1.5 4.9-2.5 7.2-.2.4 0 .9.5 1.1.1 0 .2.1.3.1.3 0 .7-.2.8-.5.7-1.8 1.4-3.7 2-5.6l.9 2.1c-.9 2.7-2 5.3-3.3 7.7-.2.4 0 .9.4 1.1.1.1.3.1.4.1.3 0 .6-.2.8-.5 1-2 1.9-4 2.7-6.1.2.5.4 1.1.6 1.6-1.1 2.6-2.3 5.1-3.7 7.4-.2.4-.1.9.3 1.2.1.1.3.1.4.1.3 0 .6-.2.7-.4 1.1-1.9 2.1-3.9 3-5.9.3.9.5 1.8.8 2.6-1 2-2.1 4-3.3 5.8-.3.4-.1.9.3 1.2.1.1.3.1.5.1.3 0 .6-.1.7-.4.9-1.4 1.7-2.8 2.5-4.3.2.7.3 1.5.5 2.2-1.2 2-2.5 4-3.9 5.9-.3.4-.2.9.2 1.2.2.1.3.2.5.2.3 0 .5-.1.7-.3 1.1-1.4 2-2.9 3-4.4.1.7.2 1.5.3 2.2-1.6 2.3-3.3 4.6-5.1 6.6-.3.4-.3.9.1 1.2.2.1.4.2.6.2.2 0 .5-.1.6-.3 1.5-1.7 2.8-3.4 4.2-5.2.1.6.1 1.1.2 1.7-1.7 2.2-3.5 4.3-5.4 6.3-.3.3-.3.9 0 1.2.2.2.4.2.6.2.2 0 .4-.1.6-.3 1.5-1.6 3-3.2 4.4-5 0 .9.1 1.8.1 2.7-1.5 1.7-3.1 3.3-4.7 4.8-.3.3-.4.9 0 1.2.3.3.9.4 1.2 0 1.2-1.1 2.4-2.3 3.5-3.5 0 .8-.1 1.7-.1 2.5-1.6 1.6-3.3 3.1-5 4.5-.4.3-.4.8-.1 1.2.3.4.8.4 1.2.1 1.3-1 2.5-2.2 3.7-3.3-.1.9-.2 1.9-.3 2.8-2.1 1.8-4.4 3.6-6.7 5.1-.4.3-.5.8-.2 1.2.3.4.8.5 1.2.2 1.8-1.2 3.6-2.6 5.4-4-.1.6-.2 1.1-.3 1.7-2.2 1.7-4.5 3.3-6.9 4.7-.4.2-.5.8-.3 1.2.2.4.8.5 1.2.3 1.9-1.1 3.7-2.3 5.5-3.6-.2.7-.3 1.4-.5 2.1-1.7 1.2-3.4 2.2-5.2 3.2-.4.2-.6.7-.3 1.2s.7.6 1.2.3c1.3-.7 2.5-1.5 3.7-2.2-.8 2.8-1.8 5.6-2.9 8.3-.2.4 0 .9.5 1.1.1 0 .2.1.3.1.3 0 .6-.2.8-.5 1.2-2.8 2.2-5.7 3-8.5.6 1.2 1.1 2.5 1.7 3.8.1.3.5.5.8.5.1 0 .2 0 .3-.1.4-.2.6-.7.5-1.1-.8-1.9-1.6-3.8-2.6-5.7.2-.7.4-1.5.5-2.2 1 1.9 2 3.8 2.9 5.8.1.3.5.5.8.5.1 0 .2 0 .3-.1.4-.2.6-.7.4-1.1-1.2-2.6-2.5-5.2-3.9-7.7.1-.6.2-1.1.3-1.7 1.2 1.8 2.2 3.7 3.2 5.7.1.3.4.5.8.5.1 0 .3 0 .4-.1.4-.2.6-.7.4-1.1-1.3-2.6-2.8-5.1-4.4-7.5.1-.9.2-1.8.3-2.8l2.7 3.9c.2.3.4.4.7.4.2 0 .3 0 .5-.1.4-.3.5-.8.3-1.2-1.2-1.9-2.5-3.8-3.9-5.6 0-.9.1-1.7.1-2.6 1 1.2 2 2.4 2.9 3.7.2.2.4.3.7.3.2 0 .4-.1.5-.2.4-.3.5-.8.2-1.2-1.3-1.8-2.8-3.6-4.3-5.3 0-.9 0-1.9-.1-2.8 1.5 1.5 2.9 3.1 4.3 4.8.3.4.8.4 1.2.1-.4.1-.3-.4-.6-.8zm-17.9 45c-1.4 0-2.6 1.2-2.6 2.6s1.2 2.6 2.6 2.6c1.4 0 2.6-1.2 2.6-2.6s-1.2-2.6-2.6-2.6zM27.1 75.2c-.3.8-.6 1.6-.8 2.5-.1.4.1.9.6 1.1h.2c.4 0 .7-.2.8-.6.3-.9.6-1.7.9-2.6 2.2-1.3 4.5-2.4 6.8-3.3.4-.2.6-.7.5-1.1-.2-.4-.7-.6-1.1-.5-1.8.7-3.6 1.6-5.3 2.5.3-.7.6-1.4.8-2.1 2.5-1.2 5.1-2.3 7.8-3.1.4-.1.7-.6.5-1.1s-.6-.7-1.1-.5c-2.1.7-4.1 1.5-6.2 2.4.2-.5.5-1 .7-1.5 2.6-1.1 5.2-1.9 7.8-2.7.5-.1.7-.6.6-1-.1-.5-.6-.7-1-.6-2.1.6-4.2 1.2-6.2 2 .4-.8.8-1.6 1.3-2.4 2.1-.7 4.3-1.3 6.5-1.8.5-.1.7-.6.6-1-.1-.5-.6-.7-1-.6-1.6.3-3.2.8-4.8 1.3.4-.6.8-1.3 1.2-1.9 2.3-.6 4.6-1.1 6.9-1.4.5-.1.8-.5.7-1-.1-.5-.5-.8-1-.7-1.7.3-3.5.6-5.2 1 .4-.6.9-1.2 1.3-1.8 2.8-.5 5.5-.9 8.3-1 .5 0 .8-.4.8-.9s-.4-.8-.9-.8c-2.2.1-4.4.4-6.6.8.4-.4.7-.9 1.1-1.3 2.8-.4 5.5-.6 8.2-.6.5 0 .8-.4.8-.9s-.4-.9-.9-.8c-2.2 0-4.4.2-6.6.4.6-.7 1.3-1.3 1.9-2 2.2-.1 4.5-.2 6.7-.1.5 0 .9-.3.9-.8s-.3-.9-.8-.9c-1.6-.1-3.3 0-5 0 .6-.6 1.2-1.1 1.8-1.7 2.3 0 4.5.1 6.7.4h.1c.4 0 .8-.3.8-.8s-.3-.9-.8-.9c-1.6-.2-3.3-.3-4.9-.3.7-.6 1.4-1.2 2.2-1.8 2.8.2 5.6.6 8.3 1.1h.2c.4 0 .8-.3.8-.7.1-.5-.2-.9-.7-1-2.2-.4-4.4-.7-6.6-1 .5-.3.9-.7 1.4-1 2.8.4 5.5.9 8.2 1.6h.2c.4 0 .7-.3.8-.6.1-.5-.2-.9-.6-1-2.1-.5-4.3-1-6.5-1.3.6-.4 1.2-.8 1.9-1.2 2 .4 4 .9 5.9 1.4h.2c.4 0 .7-.2.8-.6.1-.5-.1-.9-.6-1-1.4-.4-2.8-.7-4.2-1 2.6-1.4 5.2-2.7 7.9-3.8.4-.2.6-.7.5-1.1-.2-.4-.7-.6-1.1-.5-2.8 1.2-5.5 2.5-8.2 3.9l1.5-3.9c.2-.4 0-.9-.4-1.1-.4-.2-.9 0-1.1.4-.8 1.9-1.6 3.9-2.2 5.8-.7.4-1.3.8-2 1.2.6-2.1 1.3-4.1 2.1-6.2.2-.4 0-.9-.5-1.1-.4-.2-.9 0-1.1.5-1.1 2.7-1.9 5.5-2.7 8.2-.5.3-.9.7-1.4 1 .5-2.1 1-4.2 1.7-6.3.1-.4-.1-.9-.5-1.1-.4-.1-.9.1-1.1.5-.9 2.8-1.6 5.6-2.2 8.4-.7.6-1.5 1.2-2.2 1.8.2-1.6.5-3.1.9-4.7.1-.5-.2-.9-.6-1-.5-.1-.9.2-1 .6-.5 2.2-.9 4.5-1.2 6.7-.6.6-1.3 1.2-1.9 1.7.1-1.6.3-3.1.5-4.7.1-.5-.2-.9-.7-1-.5-.1-.9.2-1 .7-.3 2.3-.6 4.5-.7 6.8-.7.7-1.3 1.3-1.9 2 0-2.1.1-4.3.4-6.4 0-.5-.3-.9-.8-.9s-.9.3-.9.8c-.3 2.9-.4 5.7-.4 8.6-.4.4-.7.8-1.1 1.3-.1-2.1-.1-4.3 0-6.5 0-.5-.3-.9-.8-.9s-.9.3-.9.8c-.1 2.9-.1 5.8.1 8.7-.4.6-.9 1.2-1.3 1.8-.2-1.7-.3-3.4-.4-5.1 0-.5-.4-.8-.9-.8s-.8.4-.8.9c.1 2.4.3 4.8.6 7.2-.4.6-.8 1.3-1.3 2-.3-1.6-.5-3.1-.6-4.7 0-.5-.5-.8-.9-.8-.5 0-.8.5-.8.9.2 2.3.6 4.5 1 6.8-.5.8-.9 1.7-1.4 2.5-.5-2.1-.9-4.2-1.3-6.4-.1-.5-.5-.8-1-.7-.5.1-.8.5-.7 1 .4 2.9 1 5.7 1.8 8.5-.3.5-.5 1-.7 1.6-.6-2.1-1.2-4.2-1.6-6.4-.1-.5-.5-.8-1-.7-.5.1-.8.5-.7 1 .6 2.9 1.3 5.7 2.2 8.5-.3.7-.6 1.4-.8 2.1-.7-1.8-1.3-3.6-1.8-5.5-.1-.5-.6-.7-1-.6-.5.1-.7.6-.6 1 1.1 2.5 1.9 5.1 2.9 7.5z"/><circle cx="87.8" cy="20.8" r="2.6"/><path d="M256.6 208.5c.3-.8.6-1.6.8-2.5.1-.4-.1-.9-.6-1.1-.4-.1-.9.1-1.1.6-.3.9-.6 1.7-.9 2.6-2.2 1.3-4.5 2.4-6.8 3.3-.4.2-.6.7-.5 1.1.2.4.7.6 1.1.5 1.8-.7 3.6-1.6 5.3-2.5-.3.7-.6 1.4-.8 2.1-2.5 1.2-5.1 2.3-7.8 3.1-.4.1-.7.6-.5 1.1.1.4.6.7 1.1.5 2.1-.7 4.1-1.5 6.2-2.4-.2.5-.5 1-.7 1.5-2.6 1.1-5.2 1.9-7.8 2.7-.5.1-.7.6-.6 1s.6.7 1 .6c2.1-.6 4.2-1.2 6.2-2-.4.8-.8 1.6-1.3 2.4-2.1.7-4.3 1.3-6.5 1.8-.5.1-.7.6-.6 1s.6.7 1 .6c1.6-.3 3.2-.8 4.8-1.3-.4.6-.8 1.3-1.2 1.9-2.3.6-4.6 1.1-6.9 1.4-.5.1-.8.5-.7 1s.5.8 1 .7c1.7-.3 3.5-.6 5.2-1-.4.6-.9 1.2-1.3 1.8-2.8.5-5.5.9-8.3 1-.5 0-.8.4-.8.9s.4.8.9.8c2.2-.1 4.4-.4 6.6-.8-.4.4-.7.9-1.1 1.3-2.8.4-5.5.6-8.2.6-.5 0-.8.4-.8.9s.4.8.9.8c2.2 0 4.4-.1 6.6-.4-.6.7-1.3 1.3-1.9 2-2.2.1-4.5.2-6.7.1-.5 0-.9.3-.9.8s.3.9.8.9c1.6.1 3.3 0 5 0-.6.6-1.2 1.1-1.8 1.7-2.2 0-4.5-.1-6.7-.4-.5 0-.9.3-.9.8s.3.9.8.9c1.6.2 3.3.3 4.9.3-.7.6-1.4 1.2-2.2 1.8-2.8-.2-5.6-.6-8.3-1.1-.5-.1-.9.2-1 .7-.1.5.2.9.7 1 2.2.4 4.4.7 6.6 1-.5.3-.9.7-1.4 1-2.8-.4-5.5-.9-8.2-1.6-.5-.1-.9.2-1 .6-.1.5.2.9.6 1 2.1.5 4.3 1 6.5 1.3-.6.4-1.2.8-1.9 1.2-2-.4-4-.9-5.9-1.4-.5-.1-.9.1-1 .6-.1.5.1.9.6 1 1.4.4 2.8.7 4.2 1-2.6 1.4-5.2 2.7-7.9 3.8-.4.2-.6.7-.5 1.1.1.3.5.5.8.5.1 0 .2 0 .3-.1 2.8-1.2 5.5-2.5 8.2-3.9l-1.5 3.9c-.2.4 0 .9.4 1.1.1 0 .2.1.3.1.3 0 .6-.2.8-.5.8-1.9 1.6-3.9 2.2-5.8.7-.4 1.3-.8 2-1.2-.6 2.1-1.3 4.1-2.1 6.2-.2.4 0 .9.5 1.1.1 0 .2.1.3.1.3 0 .7-.2.8-.5 1.1-2.7 1.9-5.5 2.7-8.2.5-.3.9-.7 1.4-1-.5 2.1-1 4.2-1.7 6.3-.1.4.1.9.5 1.1h.3c.4 0 .7-.2.8-.6.9-2.8 1.6-5.6 2.2-8.4.7-.6 1.5-1.2 2.2-1.8-.2 1.6-.5 3.1-.9 4.7-.1.5.2.9.6 1h.2c.4 0 .7-.3.8-.7.5-2.2.9-4.5 1.2-6.7.6-.6 1.3-1.2 1.9-1.7-.1 1.6-.3 3.1-.5 4.7-.1.5.2.9.7 1h.1c.4 0 .8-.3.8-.7.3-2.3.6-4.5.7-6.8.7-.7 1.3-1.3 1.9-2 0 2.1-.1 4.3-.4 6.4 0 .5.3.9.8.9h.1c.4 0 .8-.3.8-.8.3-2.9.4-5.7.4-8.6.4-.4.7-.8 1.1-1.3.1 2.1.1 4.3 0 6.5 0 .5.3.9.8.9s.8-.4.8-.8c.1-2.9.1-5.8-.1-8.7.4-.6.9-1.2 1.3-1.8.2 1.7.3 3.4.4 5.1 0 .5.4.8.8.8.5 0 .8-.4.8-.9-.1-2.4-.3-4.8-.6-7.2.4-.6.8-1.3 1.3-2 .3 1.6.5 3.1.6 4.7 0 .4.4.8.8.8h.1c.5 0 .8-.5.8-.9-.2-2.3-.6-4.5-1-6.8.5-.8.9-1.7 1.4-2.5.5 2.1.9 4.2 1.3 6.4.1.4.4.7.8.7h.1c.5-.1.8-.5.7-1-.4-2.9-1-5.7-1.8-8.5.3-.5.5-1 .7-1.6.6 2.1 1.2 4.2 1.6 6.4.1.4.4.7.8.7h.2c.5-.1.8-.5.7-1-.6-2.9-1.3-5.7-2.2-8.5.3-.7.6-1.4.8-2.1.7 1.8 1.3 3.6 1.8 5.5.1.4.4.6.8.6h.2c.5-.1.7-.6.6-1-.6-2.4-1.5-4.9-2.4-7.3z"/><circle cx="195.8" cy="262.9" r="2.6"/><path d="M78.2 255.8c-.9-.3-1.7-.6-2.6-.9-1.3-2.2-2.4-4.5-3.3-6.8-.2-.4-.7-.6-1.1-.5-.4.2-.6.7-.5 1.1.7 1.8 1.6 3.6 2.5 5.3-.7-.3-1.4-.6-2.1-.8-1.2-2.5-2.3-5.1-3.1-7.8-.1-.4-.6-.7-1.1-.5-.4.1-.7.6-.5 1.1.7 2.1 1.5 4.1 2.4 6.2-.5-.2-1-.5-1.5-.7-1.1-2.6-1.9-5.2-2.7-7.8-.1-.5-.6-.7-1-.6-.5.1-.7.6-.6 1 .6 2.1 1.2 4.2 2 6.2-.8-.4-1.6-.8-2.4-1.3-.7-2.1-1.3-4.3-1.8-6.5-.1-.5-.6-.7-1-.6-.5.1-.7.6-.6 1 .4 1.6.8 3.2 1.3 4.8-.6-.4-1.3-.8-1.9-1.2-.6-2.3-1.1-4.6-1.4-6.9-.1-.5-.5-.8-1-.7-.5.1-.8.5-.7 1 .3 1.7.6 3.5 1 5.2-.6-.4-1.2-.9-1.8-1.3-.5-2.8-.9-5.5-1-8.3 0-.5-.4-.8-.9-.8s-.8.4-.8.9c.1 2.2.4 4.4.8 6.6-.4-.4-.9-.7-1.3-1.1-.4-2.8-.6-5.5-.6-8.2 0-.5-.4-.8-.9-.8s-.8.4-.8.9c0 2.2.2 4.4.4 6.6-.7-.6-1.3-1.3-2-1.9-.1-2.2-.2-4.5-.1-6.7 0-.5-.3-.9-.8-.9s-.9.3-.9.8c-.1 1.6 0 3.3 0 5-.6-.6-1.1-1.2-1.7-1.8 0-2.3.1-4.5.3-6.7 0-.5-.3-.9-.8-.9s-.9.3-.9.8c-.2 1.6-.3 3.3-.3 4.9-.6-.7-1.2-1.4-1.8-2.2.2-2.8.6-5.6 1.1-8.3.1-.5-.2-.9-.7-1-.5-.1-.9.2-1 .7-.4 2.2-.7 4.4-1 6.6-.3-.5-.7-.9-1-1.4.4-2.8.9-5.5 1.6-8.2.1-.5-.2-.9-.6-1-.5-.1-.9.2-1 .6-.5 2.1-1 4.3-1.3 6.5-.4-.6-.8-1.2-1.2-1.9.4-2 .9-4 1.4-5.9.1-.5-.1-.9-.6-1-.5-.1-.9.1-1 .6-.4 1.4-.7 2.8-1 4.2-1.4-2.6-2.7-5.2-3.8-7.9-.2-.4-.7-.6-1.1-.5-.4.2-.6.7-.5 1.1 1.2 2.8 2.5 5.5 3.9 8.2l-3.9-1.5c-.4-.2-.9 0-1.1.4-.2.4 0 .9.4 1.1 1.9.8 3.9 1.6 5.8 2.2.4.7.8 1.3 1.2 2-2.1-.6-4.1-1.3-6.2-2.1-.4-.2-.9 0-1.1.5-.2.4 0 .9.5 1.1 2.7 1.1 5.5 1.9 8.2 2.7.3.5.7.9 1 1.4-2.1-.5-4.2-1-6.3-1.7-.4-.1-.9.1-1.1.5-.1.4.1.9.5 1.1 2.8.9 5.6 1.6 8.4 2.2.6.7 1.2 1.5 1.8 2.2-1.6-.2-3.1-.5-4.7-.9-.5-.1-.9.2-1 .6s.2.9.6 1c2.2.5 4.5.9 6.7 1.2.6.6 1.2 1.3 1.7 1.9-1.6-.1-3.1-.3-4.7-.5-.5-.1-.9.2-1 .7-.1.5.2.9.7 1 2.3.3 4.5.6 6.8.7.7.7 1.3 1.3 2 1.9-2.1 0-4.3-.1-6.4-.4-.5 0-.9.3-.9.8s.3.9.8.9c2.6.3 5.1.4 7.6.4h.9c.4.4.8.7 1.3 1.1-2.2.1-4.3.1-6.5 0-.5 0-.9.3-.9.8s.3.9.8.9c1.2.1 2.4.1 3.6.1 1.7 0 3.4-.1 5-.2.6.4 1.2.9 1.8 1.3-1.7.2-3.4.3-5.1.4-.5 0-.8.4-.8.9s.4.8.8.8c2.4-.1 4.8-.3 7.2-.6.6.4 1.3.8 2 1.3-1.6.3-3.1.5-4.7.6-.5 0-.8.5-.8.9s.4.8.8.8h.1c2.3-.2 4.5-.6 6.8-1 .8.5 1.7.9 2.5 1.4-2.1.5-4.2.9-6.4 1.3-.5.1-.8.5-.7 1 .1.4.4.7.8.7h.1c2.9-.4 5.7-1 8.5-1.8.5.3 1 .5 1.6.7-2.1.6-4.2 1.2-6.4 1.6-.5.1-.8.5-.7 1 .1.4.4.7.8.7h.2c2.9-.6 5.7-1.3 8.5-2.2.7.3 1.4.6 2.1.8-1.8.7-3.6 1.3-5.5 1.8-.5.1-.7.6-.6 1 .1.4.4.6.8.6h.2c2.6-.7 5.1-1.6 7.5-2.5.8.3 1.6.6 2.5.8h.2c.4 0 .7-.2.8-.6.7-.8.4-1.3 0-1.4z"/><circle cx="20.8" cy="195.8" r="2.6"/><path d="M205.5 27.9c.9.3 1.7.6 2.6.9 1.3 2.2 2.4 4.5 3.3 6.8.1.3.5.5.8.5.1 0 .2 0 .3-.1.4-.2.6-.7.5-1.1-.7-1.8-1.6-3.6-2.5-5.3.7.3 1.4.6 2.1.8 1.2 2.5 2.3 5.1 3.1 7.8.1.4.5.6.8.6h.3c.4-.1.7-.6.5-1.1-.7-2.1-1.5-4.1-2.4-6.2.5.2 1 .5 1.5.7 1.1 2.6 1.9 5.2 2.7 7.8.1.4.4.6.8.6h.2c.5-.1.7-.6.6-1-.6-2.1-1.2-4.2-2-6.2.8.4 1.6.8 2.4 1.3.7 2.1 1.3 4.3 1.8 6.5.1.4.4.7.8.7h.2c.5-.1.7-.6.6-1-.3-1.6-.8-3.2-1.3-4.8.6.4 1.3.8 1.9 1.2.6 2.3 1.1 4.6 1.4 6.9.1.4.4.7.8.7h.1c.5-.1.8-.5.7-1-.3-1.7-.6-3.5-1-5.2.6.4 1.2.9 1.8 1.3.5 2.8.9 5.5 1 8.3 0 .5.4.8.8.8h.1c.5 0 .8-.4.8-.9-.1-2.2-.4-4.4-.8-6.6.4.4.9.7 1.3 1.1.4 2.8.6 5.5.6 8.2 0 .5.4.8.9.8s.8-.4.8-.9c0-2.2-.2-4.4-.4-6.6.7.6 1.3 1.3 2 1.9.1 2.2.2 4.5.1 6.7 0 .5.3.9.8.9s.8-.4.8-.8c.1-1.6 0-3.3 0-5 .6.6 1.1 1.2 1.7 1.8 0 2.3-.1 4.5-.3 6.7 0 .5.3.9.8.9h.1c.4 0 .8-.3.8-.8.2-1.6.3-3.3.3-4.9.6.7 1.2 1.4 1.8 2.2-.2 2.8-.6 5.6-1.1 8.3-.1.5.2.9.7 1h.2c.4 0 .8-.3.8-.7.4-2.2.7-4.4 1-6.6.3.5.7.9 1 1.4-.4 2.8-.9 5.5-1.6 8.2-.1.5.2.9.6 1h.2c.4 0 .7-.3.8-.6.5-2.1 1-4.3 1.3-6.5.4.6.8 1.2 1.2 1.9-.4 2-.9 4-1.4 5.9-.1.5.1.9.6 1.1h.2c.4 0 .7-.2.8-.6.4-1.4.7-2.8 1-4.2 1.4 2.6 2.7 5.2 3.8 7.9.1.3.5.5.8.5.1 0 .2 0 .3-.1.4-.2.6-.7.5-1.1-1.2-2.8-2.5-5.5-3.9-8.2l3.9 1.5c.4.2.9 0 1.1-.4.2-.4 0-.9-.4-1.1-1.9-.8-3.9-1.6-5.8-2.2-.4-.7-.8-1.3-1.2-2 2.1.6 4.1 1.3 6.2 2.1.4.2.9 0 1.1-.5.2-.4 0-.9-.5-1.1-2.7-1.1-5.5-1.9-8.2-2.7-.3-.5-.7-.9-1-1.4 2.1.5 4.2 1 6.3 1.7.4.1.9-.1 1.1-.5.1-.4-.1-.9-.5-1.1-2.8-.9-5.6-1.6-8.4-2.2-.6-.7-1.2-1.5-1.8-2.2 1.6.2 3.1.5 4.7.9.5.1.9-.2 1-.6.1-.5-.2-.9-.6-1-2.2-.5-4.5-.9-6.7-1.2-.6-.6-1.2-1.3-1.7-1.9 1.6.1 3.1.3 4.7.5.5.1.9-.2 1-.7.1-.5-.2-.9-.7-1-2.3-.3-4.5-.6-6.8-.7l-2-2c2.1 0 4.3.2 6.4.4.5 0 .9-.3.9-.8s-.3-.9-.8-.9c-2.9-.3-5.7-.4-8.6-.4-.4-.4-.8-.7-1.3-1.1 2.2-.1 4.3-.1 6.5 0 .5 0 .9-.3.9-.8s-.3-.9-.8-.9c-2.9-.1-5.8-.1-8.7.1-.6-.4-1.2-.9-1.8-1.3 1.7-.2 3.4-.3 5.1-.4.5 0 .8-.4.8-.9s-.4-.8-.9-.8c-2.4.1-4.8.3-7.2.6-.6-.4-1.3-.8-2-1.3 1.6-.3 3.1-.5 4.7-.6.5 0 .8-.5.8-.9 0-.5-.5-.8-.9-.8-2.3.2-4.5.6-6.8 1-.8-.5-1.7-.9-2.5-1.4 2.1-.5 4.2-.9 6.4-1.3.5-.1.8-.5.7-1-.1-.5-.5-.8-1-.7-2.9.4-5.7 1-8.5 1.8-.5-.3-1-.5-1.6-.7 2.1-.6 4.2-1.2 6.4-1.6.5-.1.8-.5.7-1s-.5-.8-1-.7c-2.9.6-5.7 1.3-8.5 2.2-.7-.3-1.4-.6-2.1-.8 1.8-.7 3.6-1.3 5.5-1.8.5-.1.7-.6.6-1-.1-.5-.6-.7-1-.6-2.6.7-5.1 1.6-7.5 2.5-.8-.3-1.6-.6-2.5-.8-.4-.1-.9.1-1.1.6 0 .8.2 1.2.7 1.4z"/><circle cx="262.9" cy="87.8" r="2.6"/><path d="M141.2 22.4c-66.1 0-119.9 53.8-119.9 119.9s53.8 119.9 119.9 119.9 119.9-53.8 119.9-119.9S207.3 22.4 141.2 22.4zm0 238.1C76 260.5 23 207.5 23 142.3S76 24.1 141.2 24.1s118.2 53 118.2 118.2-53 118.2-118.2 118.2z"/></g><g id="SvgjsG23248" class="jsJ54nov0A" transform="translate(74.34929034751558, 74.5322262652827) scale(4.282081825176538)" light-content="false" non-strokable="false" fill="url(#SvgjsLinearGradientFmVqHxOXd10)"><path d="M29.5 21h-2.691c-.045-.239-.1-.473-.16-.706l4.799-2.399a1.001 1.001 0 0 0-.895-1.789l-4.578 2.288C24.229 14.626 20.42 12 16 12c-5.382 0-9.865 3.888-10.809 9H2.5A2.503 2.503 0 0 0 0 23.5c0 .49.18.963.505 1.329L4 28.761v.739C4 30.879 5.122 32 6.5 32h19c1.379 0 2.5-1.121 2.5-2.5v-.739l3.494-3.932c.326-.366.506-.839.506-1.329 0-1.379-1.121-2.5-2.5-2.5zm-3.701 0h-.562l.498-.25c.019.084.046.165.064.25zM16 13c4.029 0 7.5 2.4 9.082 5.841l-.891.445C22.775 16.171 19.645 14 16 14c-4.282 0-7.859 2.993-8.77 7H6.202c.929-4.559 4.969-8 9.798-8zm4.576 8c-.773-1.763-2.531-3-4.576-3s-3.802 1.237-4.576 3H10.35c.826-2.326 3.043-4 5.65-4a6.006 6.006 0 0 1 5.508 3.627l-.744.373h-.188zM16 20c-.883 0-1.67.391-2.22 1h-1.224c.694-1.189 1.97-2 3.444-2 1.473 0 2.75.811 3.443 2h-1.225A2.977 2.977 0 0 0 16 20zm0-4c-3.165 0-5.842 2.112-6.705 5H8.263c.892-3.444 4.017-6 7.737-6 3.246 0 6.043 1.948 7.295 4.734l-.893.446C21.314 17.723 18.855 16 16 16zm10 12v1.5a.5.5 0 0 1-.5.5h-19a.5.5 0 0 1-.5-.5V28l-4-4.5a.5.5 0 0 1 .5-.5h27a.5.5 0 0 1 .5.5L26 28zM7.977 11.712l.008.018h.002c.083.16.249.27.443.27a.503.503 0 0 0 .484-.628.034.034 0 0 0 0-.02c-.375-.882-.019-1.85.419-2.892.473-1.126.98-2.376.422-3.647a.49.49 0 0 0-.913.352l.003.009.005.012c.404.909.013 1.841-.428 2.893-.466 1.109-.982 2.338-.463 3.591l.018.042zm12.177-.146c.004.006.006.012.008.018h.002a.501.501 0 0 0 .929-.357.024.024 0 0 0-.002-.02c-.373-.882-.018-1.85.42-2.892.473-1.126.98-2.376.422-3.647a.49.49 0 0 0-.914.346v.006l.004.009a.028.028 0 0 1 .004.012c.404.909.014 1.841-.428 2.893-.465 1.109-.98 2.339-.461 3.592l.016.04zm-5.135-4.354l.008.018h.002a.501.501 0 0 0 .945-.232.472.472 0 0 0-.018-.125.034.034 0 0 0 0-.02c-.375-.882-.019-1.85.419-2.892.473-1.126.98-2.376.422-3.647a.49.49 0 0 0-.914.351l.003.009.004.012c.404.909.013 1.841-.428 2.893-.466 1.109-.982 2.339-.462 3.592l.019.041z"/></g></g></svg>